<svg width="43" height="29" viewBox="0 0 43 29" fill="none" xmlns="http://www.w3.org/2000/svg">
<path d="M16.655 3.6335C16.3337 3.6335 16.0255 3.76114 15.7983 3.98835C15.5711 4.21555 15.4434 4.52371 15.4434 4.84502V21.8026C15.4434 22.1239 15.5711 22.4321 15.7983 22.6593C16.0255 22.8865 16.3337 23.0141 16.655 23.0141C16.9763 23.0141 17.2844 22.8865 17.5117 22.6593C17.7389 22.4321 17.8665 22.1239 17.8665 21.8026V4.84502C17.8664 4.52375 17.7387 4.21568 17.5115 3.98851C17.2843 3.76133 16.9762 3.63364 16.655 3.6335ZM21.5 0C21.1787 0 20.8705 0.127642 20.6433 0.354847C20.4161 0.582052 20.2885 0.890208 20.2885 1.21152V26.9508C20.2885 27.2721 20.4161 27.5803 20.6433 27.8075C20.8705 28.0347 21.1787 28.1623 21.5 28.1623C21.8213 28.1623 22.1295 28.0347 22.3567 27.8075C22.5839 27.5803 22.7115 27.2721 22.7115 26.9508V1.21099C22.7114 0.889764 22.5837 0.581746 22.3565 0.354658C22.1293 0.127569 21.8212 -3.16133e-08 21.5 0ZM26.6476 5.14764C26.3263 5.14764 26.0182 5.27528 25.791 5.50248C25.5638 5.72969 25.4361 6.03785 25.4361 6.35916V20.2885C25.4361 20.6098 25.5638 20.9179 25.791 21.1452C26.0182 21.3724 26.3263 21.5 26.6476 21.5C26.969 21.5 27.2771 21.3724 27.5043 21.1452C27.7315 20.9179 27.8592 20.6098 27.8592 20.2885V6.35916C27.8592 6.03785 27.7315 5.72969 27.5043 5.50248C27.2771 5.27528 26.969 5.14764 26.6476 5.14764ZM31.7958 4.84502C31.4745 4.84502 31.1663 4.97267 30.9391 5.19987C30.7119 5.42708 30.5843 5.73523 30.5843 6.05655V20.8948C30.5843 21.2161 30.7119 21.5242 30.9391 21.7515C31.1663 21.9787 31.4745 22.1063 31.7958 22.1063C32.1171 22.1063 32.4253 21.9787 32.6525 21.7515C32.8797 21.5242 33.0073 21.2161 33.0073 20.8948V6.05601C33.0071 5.73483 32.8793 5.4269 32.6521 5.19984C32.425 4.97278 32.117 4.84517 31.7958 4.84502ZM36.6408 9.08429C36.3195 9.08429 36.0114 9.21193 35.7842 9.43913C35.557 9.66634 35.4293 9.9745 35.4293 10.2958V16.3524C35.4293 16.6737 35.557 16.9818 35.7842 17.209C36.0114 17.4362 36.3195 17.5639 36.6408 17.5639C36.9622 17.5639 37.2703 17.4362 37.4975 17.209C37.7247 16.9818 37.8524 16.6737 37.8524 16.3524V10.2958C37.8524 10.1367 37.821 9.97917 37.7601 9.83218C37.6993 9.68519 37.61 9.55163 37.4975 9.43913C37.385 9.32663 37.2515 9.23739 37.1045 9.17651C36.9575 9.11562 36.7999 9.08429 36.6408 9.08429ZM41.7885 10.9016C41.4672 10.9016 41.159 11.0292 40.9318 11.2564C40.7046 11.4836 40.577 11.7918 40.577 12.1131V14.5356C40.577 14.8569 40.7046 15.1651 40.9318 15.3923C41.159 15.6195 41.4672 15.7471 41.7885 15.7471C42.1098 15.7471 42.4179 15.6195 42.6452 15.3923C42.8724 15.1651 43 14.8569 43 14.5356V12.1131C43 11.7918 42.8724 11.4836 42.6452 11.2564C42.4179 11.0292 42.1098 10.9016 41.7885 10.9016ZM11.5068 4.84502C11.1855 4.84502 10.8773 4.97267 10.6501 5.19987C10.4229 5.42708 10.2953 5.73523 10.2953 6.05655V20.8948C10.2953 21.2161 10.4229 21.5242 10.6501 21.7515C10.8773 21.9787 11.1855 22.1063 11.5068 22.1063C11.8281 22.1063 12.1363 21.9787 12.3635 21.7515C12.5907 21.5242 12.7183 21.2161 12.7183 20.8948V6.05601C12.7182 5.73479 12.5905 5.42677 12.3633 5.19968C12.1361 4.97259 11.828 4.84502 11.5068 4.84502ZM6.35916 9.08429C6.03785 9.08429 5.72969 9.21193 5.50248 9.43913C5.27528 9.66634 5.14764 9.9745 5.14764 10.2958V16.3524C5.14764 16.6737 5.27528 16.9818 5.50248 17.209C5.72969 17.4362 6.03785 17.5639 6.35916 17.5639C6.68048 17.5639 6.98864 17.4362 7.21584 17.209C7.44305 16.9818 7.57069 16.6737 7.57069 16.3524V10.2958C7.57069 10.1367 7.53935 9.97917 7.47847 9.83218C7.41758 9.68519 7.32834 9.55163 7.21584 9.43913C7.10334 9.32663 6.96978 9.23739 6.82279 9.17651C6.6758 9.11562 6.51826 9.08429 6.35916 9.08429ZM1.21152 10.9016C0.890302 10.9016 0.582227 11.0291 0.355038 11.2562C0.127848 11.4833 0.000142513 11.7913 0 12.1126V14.5351C9.57598e-09 14.8564 0.127642 15.1645 0.354847 15.3918C0.582052 15.619 0.890208 15.7466 1.21152 15.7466C1.53284 15.7466 1.841 15.619 2.0682 15.3918C2.29541 15.1645 2.42305 14.8564 2.42305 14.5351V12.1126C2.42277 11.7914 2.29501 11.4834 2.06786 11.2564C1.8407 11.0293 1.5327 10.9017 1.21152 10.9016Z" fill="black"/>
</svg>
