<svg width="21" height="36" viewBox="0 0 21 36" fill="none" xmlns="http://www.w3.org/2000/svg">
<path fill-rule="evenodd" clip-rule="evenodd" d="M10.0255 0.0815044C10.1926 0.00733357 10.3775 -0.0169263 10.5581 0.0116502C10.7386 0.0402266 10.907 0.120419 11.043 0.242558L20.5167 8.7689C20.6157 8.85775 20.6948 8.96642 20.7489 9.08786C20.8031 9.2093 20.8311 9.34078 20.8311 9.47375C20.8311 9.60672 20.8031 9.73819 20.7489 9.85963C20.6948 9.98107 20.6157 10.0897 20.5167 10.1786L11.8255 18.0001L20.5167 25.8216C20.6157 25.9104 20.6948 26.0191 20.7489 26.1406C20.8031 26.262 20.8311 26.3935 20.8311 26.5264C20.8311 26.6594 20.8031 26.7909 20.7489 26.9123C20.6948 27.0338 20.6157 27.1424 20.5167 27.2313L11.043 35.7576C10.9068 35.8799 10.7381 35.9601 10.5573 35.9885C10.3765 36.0169 10.1914 35.9924 10.0242 35.9178C9.85711 35.8433 9.71514 35.7219 9.6155 35.5684C9.51587 35.4149 9.46283 35.2358 9.4628 35.0528V20.1279L1.5693 27.2313C1.38168 27.3946 1.13737 27.4775 0.889128 27.4622C0.640882 27.4469 0.408606 27.3346 0.242443 27.1496C0.0762806 26.9645 -0.0104392 26.7215 0.00100426 26.473C0.0124477 26.2246 0.121136 25.9906 0.303607 25.8216L8.9948 18.0001L0.303607 10.1786C0.121136 10.0096 0.0124477 9.77559 0.00100426 9.52714C-0.0104392 9.27869 0.0762806 9.0357 0.242443 8.85063C0.408606 8.66557 0.640882 8.55326 0.889128 8.53797C1.13737 8.52268 1.38168 8.60563 1.5693 8.7689L9.4628 15.8742V0.947402C9.46277 0.764102 9.51593 0.584731 9.61581 0.431037C9.7157 0.277342 9.85802 0.155924 10.0255 0.0815044ZM11.3575 20.1279L18.4685 26.5264L11.3575 32.925V20.1279ZM11.3575 15.8723V3.0752L18.4685 9.47375L11.3575 15.8723Z" fill="black"/>
</svg>
