<svg width="24" height="36" viewBox="0 0 24 36" fill="none" xmlns="http://www.w3.org/2000/svg">
<path d="M20.7918 0H3.16406C1.4194 0 0 1.4194 0 3.16406V32.8359C0 34.5806 1.4194 36 3.16406 36H20.7918C22.5364 36 23.9558 34.5806 23.9558 32.8359V3.16406C23.9559 1.4194 22.5365 0 20.7918 0ZM20.7918 33.8906H3.16406C2.58251 33.8906 2.10938 33.4175 2.10938 32.8359V3.16406C2.10938 2.58251 2.58251 2.10938 3.16406 2.10938H20.7918C21.3733 2.10938 21.8464 2.58251 21.8464 3.16406V32.8359H21.8465C21.8465 33.4175 21.3734 33.8906 20.7918 33.8906Z" fill="black"/>
<path d="M11.9787 4.04572C9.4771 4.04572 7.44191 6.08091 7.44191 8.58249C7.44191 11.0841 9.4771 13.1193 11.9787 13.1193C14.4803 13.1193 16.5155 11.0841 16.5155 8.58256C16.5155 6.08098 14.4803 4.04572 11.9787 4.04572ZM11.9787 11.01C10.6402 11.01 9.55128 9.92103 9.55128 8.58256C9.55128 7.24409 10.6402 6.15509 11.9787 6.15509C13.3172 6.15509 14.4061 7.24402 14.4061 8.58249C14.4061 9.92096 13.3172 11.01 11.9787 11.01ZM11.9787 14.693C7.39374 14.693 3.66367 18.4231 3.66367 23.008C3.66367 27.593 7.39374 31.323 11.9787 31.323C16.5636 31.323 20.2937 27.5929 20.2937 23.008C20.2937 18.4231 16.5636 14.693 11.9787 14.693ZM11.9787 29.2136C8.55692 29.2136 5.77304 26.4298 5.77304 23.008C5.77304 19.5862 8.55692 16.8024 11.9787 16.8024C15.4004 16.8024 18.1843 19.5862 18.1843 23.008C18.1843 26.4298 15.4004 29.2136 11.9787 29.2136Z" fill="black"/>
<path d="M11.9788 19.5006C10.0445 19.5006 8.47079 21.0743 8.47079 23.0086C8.47079 24.9428 10.0445 26.5165 11.9788 26.5165C13.9131 26.5165 15.4867 24.9428 15.4867 23.0086C15.4867 21.0743 13.9131 19.5006 11.9788 19.5006ZM11.9788 24.4071C11.2076 24.4071 10.5802 23.7797 10.5802 23.0086C10.5802 22.2374 11.2076 21.61 11.9788 21.61C12.7499 21.61 13.3773 22.2374 13.3773 23.0086C13.3773 23.7797 12.7499 24.4071 11.9788 24.4071Z" fill="black"/>
</svg>
